{
  "accessors": [
    {
      "bufferView": 2,
      "componentType": 5126,
      "count": 65532,
      "max": [
        1.018279790878296,
        5.505335330963135,
        1.0167396068572998
      ],
      "min": [
        -1.0156511068344116,
        0.04594355821609497,
        -1.016216516494751
      ],
      "type": "VEC3"
    },
    {
      "bufferView": 2,
      "byteOffset": 786384,
      "componentType": 5126,
      "count": 65532,
      "max": [
        1.0,
        1.0,
        1.0
      ],
      "min": [
        -1.0,
        -1.0,
        -1.0
      ],
      "type": "VEC3"
    },
    {
      "bufferView": 1,
      "componentType": 5126,
      "count": 65532,
      "max": [
        1.0,
        1.0
      ],
      "min": [
        -4.656612873077393e-10,
        -2.3283064365386963e-10
      ],
      "type": "VEC2"
    },
    {
      "bufferView": 0,
      "componentType": 5125,
      "count": 134736,
      "type": "SCALAR"
    },
    {
      "bufferView": 2,
      "byteOffset": 1572768,
      "componentType": 5126,
      "count": 65532,
      "max": [
        1.0182795524597168,
        5.505334854125977,
        1.0167394876480103
      ],
      "min": [
        -1.0156508684158325,
        -0.017876088619232178,
        -1.0162163972854614
      ],
      "type": "VEC3"
    },
    {
      "bufferView": 2,
      "byteOffset": 2359152,
      "componentType": 5126,
      "count": 65532,
      "max": [
        1.0,
        1.0,
        1.0
      ],
      "min": [
        -1.0,
        -1.0,
        -1.0
      ],
      "type": "VEC3"
    },
    {
      "bufferView": 1,
      "byteOffset": 524256,
      "componentType": 5126,
      "count": 65532,
      "max": [
        1.0,
        1.0
      ],
      "min": [
        -4.656612873077393e-10,
        -2.3283064365386963e-10
      ],
      "type": "VEC2"
    },
    {
      "bufferView": 0,
      "byteOffset": 538944,
      "componentType": 5125,
      "count": 129477,
      "type": "SCALAR"
    },
    {
      "bufferView": 2,
      "byteOffset": 3145536,
      "componentType": 5126,
      "count": 65534,
      "max": [
        1.018279790878296,
        5.431896686553955,
        1.0156306028366089
      ],
      "min": [
        -1.0156508684158325,
        -0.01787620782852173,
        -1.016216516494751
      ],
      "type": "VEC3"
    },
    {
      "bufferView": 2,
      "byteOffset": 3931944,
      "componentType": 5126,
      "count": 65534,
      "max": [
        1.0,
        1.0,
        1.0
      ],
      "min": [
        -1.0,
        -1.0,
        -1.0
      ],
      "type": "VEC3"
    },
    {
      "bufferView": 1,
      "byteOffset": 1048512,
      "componentType": 5126,
      "count": 65534,
      "max": [
        1.0,
        1.0
      ],
      "min": [
        -4.656612873077393e-10,
        -2.3283064365386963e-10
      ],
      "type": "VEC2"
    },
    {
      "bufferView": 0,
      "byteOffset": 1056852,
      "componentType": 5125,
      "count": 129516,
      "type": "SCALAR"
    },
    {
      "bufferView": 2,
      "byteOffset": 4718352,
      "componentType": 5126,
      "count": 65532,
      "max": [
        1.0182796716690063,
        3.664264440536499,
        1.0167396068572998
      ],
      "min": [
        -1.0156511068344116,
        1.8231936693191528,
        -1.016216516494751
      ],
      "type": "VEC3"
    },
    {
      "bufferView": 2,
      "byteOffset": 5504736,
      "componentType": 5126,
      "count": 65532,
      "max": [
        1.0,
        1.0,
        1.0
      ],
      "min": [
        -1.0,
        -1.0,
        -1.0
      ],
      "type": "VEC3"
    },
    {
      "bufferView": 1,
      "byteOffset": 1572784,
      "componentType": 5126,
      "count": 65532,
      "max": [
        1.0,
        1.0
      ],
      "min": [
        -4.656612873077393e-10,
        -2.3283064365386963e-10
      ],
      "type": "VEC2"
    },
    {
      "bufferView": 0,
      "byteOffset": 1574916,
      "componentType": 5125,
      "count": 132795,
      "type": "SCALAR"
    },
    {
      "bufferView": 2,
      "byteOffset": 6291120,
      "componentType": 5126,
      "count": 20966,
      "max": [
        1.0182795524597168,
        5.505334854125977,
        1.0167396068572998
      ],
      "min": [
        -0.295363187789917,
        1.875211477279663,
        -1.0003355741500854
      ],
      "type": "VEC3"
    },
    {
      "bufferView": 2,
      "byteOffset": 6542712,
      "componentType": 5126,
      "count": 20966,
      "max": [
        1.0,
        1.0,
        1.0
      ],
      "min": [
        -1.0,
        -1.0,
        -1.0
      ],
      "type": "VEC3"
    },
    {
      "bufferView": 1,
      "byteOffset": 2097040,
      "componentType": 5126,
      "count": 20966,
      "max": [
        1.0,
        1.0
      ],
      "min": [
        -4.656612873077393e-10,
        -2.3283064365386963e-10
      ],
      "type": "VEC2"
    },
    {
      "bufferView": 0,
      "byteOffset": 2106096,
      "componentType": 5125,
      "count": 41946,
      "type": "SCALAR"
    },
    {
      "bufferView": 2,
      "byteOffset": 6794304,
      "componentType": 5126,
      "count": 12654,
      "max": [
        1.0148802995681763,
        5.431066513061523,
        1.0133399963378906
      ],
      "min": [
        -1.0122514963150024,
        0.045566678047180176,
        -1.0128170251846313
      ],
      "type": "VEC3"
    },
    {
      "bufferView": 2,
      "byteOffset": 6946152,
      "componentType": 5126,
      "count": 12654,
      "max": [
        1.0,
        2.3241760573000647e-05,
        1.0
      ],
      "min": [
        -1.0,
        -2.3241760573000647e-05,
        -1.0
      ],
      "type": "VEC3"
    },
    {
      "bufferView": 1,
      "byteOffset": 2264768,
      "componentType": 5126,
      "count": 12654,
      "max": [
        0.9817074537277222,
        0.9596603512763977
      ],
      "min": [
        0.015674931928515434,
        0.03445976600050926
      ],
      "type": "VEC2"
    },
    {
      "bufferView": 0,
      "byteOffset": 2273880,
      "componentType": 5125,
      "count": 24480,
      "type": "SCALAR"
    }
  ],
  "asset": {
    "extras": {
      "author": "Shalmon (https://sketchfab.com/nashalanandas)",
      "license": "CC-BY-4.0 (http://creativecommons.org/licenses/by/4.0/)",
      "source": "https://sketchfab.com/3d-models/building-06-162a09fdfe7a4accb69bedb04b633e7f",
      "title": "Building 06"
    },
    "generator": "Sketchfab-12.66.0",
    "version": "2.0"
  },
  "bufferViews": [
    {
      "buffer": 0,
      "byteLength": 2371800,
      "name": "floatBufferViews",
      "target": 34963
    },
    {
      "buffer": 0,
      "byteLength": 2366000,
      "byteOffset": 2371800,
      "byteStride": 8,
      "name": "floatBufferViews",
      "target": 34962
    },
    {
      "buffer": 0,
      "byteLength": 7098000,
      "byteOffset": 4737800,
      "byteStride": 12,
      "name": "floatBufferViews",
      "target": 34962
    }
  ],
  "buffers": [
    {
      "byteLength": 11835800,
      "uri": "scene.bin"
    }
  ],
  "images": [
    {
      "uri": "textures/TexturesCom_BuildingsHighRise0634_5_seamless_S_baseColor.png"
    }
  ],
  "materials": [
    {
      "doubleSided": true,
      "name": "TexturesCom_BuildingsHighRise0634_5_seamless_S",
      "pbrMetallicRoughness": {
        "baseColorTexture": {
          "index": 0
        },
        "metallicFactor": 0.0,
        "roughnessFactor": 0.5
      }
    },
    {
      "doubleSided": true,
      "name": "TexturesCom_BuildingsHighRise0634_5_seamless_S.001",
      "pbrMetallicRoughness": {
        "baseColorTexture": {
          "index": 0
        },
        "metallicFactor": 0.0,
        "roughnessFactor": 0.0
      }
    }
  ],
  "meshes": [
    {
      "name": "Object_0",
      "primitives": [
        {
          "attributes": {
            "NORMAL": 1,
            "POSITION": 0,
            "TEXCOORD_0": 2
          },
          "indices": 3,
          "material": 0,
          "mode": 4
        }
      ]
    },
    {
      "name": "Object_1",
      "primitives": [
        {
          "attributes": {
            "NORMAL": 5,
            "POSITION": 4,
            "TEXCOORD_0": 6
          },
          "indices": 7,
          "material": 0,
          "mode": 4
        }
      ]
    },
    {
      "name": "Object_2",
      "primitives": [
        {
          "attributes": {
            "NORMAL": 9,
            "POSITION": 8,
            "TEXCOORD_0": 10
          },
          "indices": 11,
          "material": 0,
          "mode": 4
        }
      ]
    },
    {
      "name": "Object_3",
      "primitives": [
        {
          "attributes": {
            "NORMAL": 13,
            "POSITION": 12,
            "TEXCOORD_0": 14
          },
          "indices": 15,
          "material": 0,
          "mode": 4
        }
      ]
    },
    {
      "name": "Object_4",
      "primitives": [
        {
          "attributes": {
            "NORMAL": 17,
            "POSITION": 16,
            "TEXCOORD_0": 18
          },
          "indices": 19,
          "material": 0,
          "mode": 4
        }
      ]
    },
    {
      "name": "Object_5",
      "primitives": [
        {
          "attributes": {
            "NORMAL": 21,
            "POSITION": 20,
            "TEXCOORD_0": 22
          },
          "indices": 23,
          "material": 1,
          "mode": 4
        }
      ]
    }
  ],
  "nodes": [
    {
      "children": [
        1
      ],
      "matrix": [
        1.0,
        0.0,
        0.0,
        0.0,
        0.0,
        2.220446049250313e-16,
        -1.0,
        0.0,
        0.0,
        1.0,
        2.220446049250313e-16,
        0.0,
        0.0,
        0.0,
        0.0,
        1.0
      ],
      "name": "Sketchfab_model"
    },
    {
      "children": [
        2
      ],
      "name": "root"
    },
    {
      "children": [
        3
      ],
      "matrix": [
        1.0,
        0.0,
        0.0,
        0.0,
        0.0,
        2.220446049250313e-16,
        1.0,
        0.0,
        0.0,
        -1.0,
        2.220446049250313e-16,
        0.0,
        0.0,
        0.0,
        0.0,
        1.0
      ],
      "name": "GLTF_SceneRootNode"
    },
    {
      "children": [
        4,
        5,
        6,
        7,
        8,
        9
      ],
      "matrix": [
        0.5431623458862305,
        0.0,
        0.0,
        0.0,
        0.0,
        0.5431623458862305,
        0.0,
        0.0,
        0.0,
        0.0,
        0.5431623458862305,
        0.0,
        -0.5441486835479736,
        -0.49029040336608887,
        -0.0001797493314370513,
        1.0
      ],
      "name": "Plane.001_0"
    },
    {
      "mesh": 0,
      "name": "Object_4"
    },
    {
      "mesh": 1,
      "name": "Object_5"
    },
    {
      "mesh": 2,
      "name": "Object_6"
    },
    {
      "mesh": 3,
      "name": "Object_7"
    },
    {
      "mesh": 4,
      "name": "Object_8"
    },
    {
      "mesh": 5,
      "name": "Object_9"
    }
  ],
  "samplers": [
    {
      "magFilter": 9729,
      "minFilter": 9987,
      "wrapS": 33071,
      "wrapT": 33071
    }
  ],
  "scene": 0,
  "scenes": [
    {
      "name": "Sketchfab_Scene",
      "nodes": [
        0
      ]
    }
  ],
  "textures": [
    {
      "sampler": 0,
      "source": 0
    }
  ]
}
